<svg width="1280" height="720" xmlns="http://www.w3.org/2000/svg" xmlns:xlink="http://www.w3.org/1999/xlink" overflow="hidden"><defs><clipPath id="clip0"><rect x="0" y="0" width="1280" height="720"/></clipPath></defs><g clip-path="url(#clip0)"><rect x="0" y="0" width="1280" height="720" fill="#FFFFFF"/><text font-family="Aptos,Aptos_MSFontService,sans-serif" font-weight="700" font-size="24" transform="translate(340.494 77)">Graphical vector</text><text font-family="Aptos,Aptos_MSFontService,sans-serif" font-weight="700" font-size="24" transform="translate(525.394 77)">addition</text><text font-family="Aptos,Aptos_MSFontService,sans-serif" font-weight="700" font-size="24" transform="translate(615.727 77)">: components, magnitude and direction</text><path d="M175 189.667 175 398.972 173 398.972 173 189.667ZM170 191 174 183 178 191ZM178 397.638 174 405.638 170 397.638Z" fill="#156082"/><path d="M6.66669-0.999997 233.333-0.999898 233.333 1.0001 6.66669 1ZM8 4 0 0 8-4ZM232-3.9999 240 0.000104987 232 4.0001Z" fill="#156082" transform="matrix(-1 0 0 1 294 297)"/><path d="M1-2.02894e-06 1.0001 49.7647-0.999899 49.7647-1 2.02894e-06ZM5.53053 42.2685 0.00010501 51.7493-5.53036 42.2686C-5.80864 41.7915-5.64751 41.1792-5.17045 40.9009-4.6934 40.6226-4.08109 40.7838-3.8028 41.2608L0.863879 49.2608-0.863679 49.2608 3.80297 41.2608C4.08125 40.7837 4.69357 40.6226 5.17062 40.9009 5.64767 41.1792 5.80881 41.7915 5.53053 42.2685Z" fill="#E97132" transform="matrix(1 0 0 -1 174 296.745)"/><path d="M174 296 252.02 296 252.02 298 174 298ZM244.524 291.47 254.005 297 244.524 302.531C244.047 302.809 243.434 302.648 243.156 302.171 242.878 301.694 243.039 301.081 243.516 300.803L251.516 296.136 251.516 297.864 243.516 293.197C243.039 292.919 242.878 292.307 243.156 291.83 243.435 291.353 244.047 291.191 244.524 291.47Z" fill="#E97132"/><text font-family="Aptos,Aptos_MSFontService,sans-serif" font-weight="700" font-size="15" transform="translate(146.506 276)">4 m</text><text font-family="Aptos,Aptos_MSFontService,sans-serif" font-weight="400" font-size="16" transform="translate(28.9733 129)">V</text><text font-family="Aptos,Aptos_MSFontService,sans-serif" font-weight="400" font-size="16" transform="translate(37.6267 129)">ector</text><text font-family="Aptos,Aptos_MSFontService,sans-serif" font-weight="400" font-size="16" transform="translate(77.0467 129)">1: 4 m to North</text><text font-family="Aptos,Aptos_MSFontService,sans-serif" font-weight="400" font-size="16" transform="translate(28.9733 148)">Vector</text><text font-family="Aptos,Aptos_MSFontService,sans-serif" font-weight="400" font-size="16" transform="translate(77.0467 148)">2: 6</text><text font-family="Aptos,Aptos_MSFontService,sans-serif" font-weight="400" font-size="16" transform="translate(108.547 148)">m</text><text font-family="Aptos,Aptos_MSFontService,sans-serif" font-weight="400" font-size="16" transform="translate(125.547 148)">to</text><text font-family="Aptos,Aptos_MSFontService,sans-serif" font-weight="400" font-size="16" transform="translate(142.8 148)">the</text><text font-family="Aptos,Aptos_MSFontService,sans-serif" font-weight="400" font-size="16" transform="translate(168.633 148)">Eas</text><text font-family="Aptos,Aptos_MSFontService,sans-serif" font-weight="400" font-size="16" transform="translate(193.747 148)">t</text><text font-family="Aptos,Aptos_MSFontService,sans-serif" font-weight="700" font-size="24" transform="translate(83.573 598)">V</text><text font-family="Aptos,Aptos_MSFontService,sans-serif" font-weight="700" font-size="24" transform="translate(97.2797 598)">ector</text><text font-family="Aptos,Aptos_MSFontService,sans-serif" font-weight="700" font-size="24" transform="translate(159.66 598)">components</text><text font-family="Aptos,Aptos_MSFontService,sans-serif" font-weight="400" font-size="16" transform="translate(83.573 639)">Vector 1 =</text><path d="M4.09375 3.39844 0.976562-3.61719 0.976562-4.19531 4.09375-11.2188 4.92188-10.9219 2.41406-3.90625 4.92188 3.11719Z" transform="translate(155.313 639)"/><text fill="#000000" fill-opacity="0" font-family="Arial,Arial_MSFontService,sans-serif" font-size="14.6172" x="0.976562" y="1.57129">Û¦</text><text font-family="Cambria Math,Cambria Math_MSFontService,sans-serif" font-weight="400" font-size="16" transform="translate(161.066 639)">0</text><text font-family="Cambria Math,Cambria Math_MSFontService,sans-serif" font-weight="400" font-size="16" transform="translate(169.9 639)">,</text><text font-family="Cambria Math,Cambria Math_MSFontService,sans-serif" font-weight="400" font-size="16" transform="translate(173.233 639)">4</text><path d="M1.66406-11.2188 4.78125-4.20312 4.78125-3.625 1.66406 3.39844 0.828125 3.10156 3.33594-3.91406 0.828125-10.9375Z" transform="translate(182.066 639)"/><text fill="#000000" fill-opacity="0" font-family="Arial,Arial_MSFontService,sans-serif" font-size="14.6172" x="0.828125" y="1.57129">Û§</text><text font-family="Aptos,Aptos_MSFontService,sans-serif" font-weight="400" font-size="16" transform="translate(83.573 658)">Vector 2 =</text><path d="M4.09375 3.39844 0.976562-3.61719 0.976562-4.19531 4.09375-11.2188 4.92188-10.9219 2.41406-3.90625 4.92188 3.11719Z" transform="translate(155.313 658)"/><text fill="#000000" fill-opacity="0" font-family="Arial,Arial_MSFontService,sans-serif" font-size="14.6172" x="0.976562" y="1.57129">Û¦</text><text font-family="Cambria Math,Cambria Math_MSFontService,sans-serif" font-weight="400" font-size="16" transform="translate(161.066 658)">0</text><text font-family="Cambria Math,Cambria Math_MSFontService,sans-serif" font-weight="400" font-size="16" transform="translate(169.9 658)">,</text><text font-family="Cambria Math,Cambria Math_MSFontService,sans-serif" font-weight="400" font-size="16" transform="translate(173.233 658)">6</text><path d="M1.66406-11.2188 4.78125-4.20312 4.78125-3.625 1.66406 3.39844 0.828125 3.10156 3.33594-3.91406 0.828125-10.9375Z" transform="translate(182.066 658)"/><text fill="#000000" fill-opacity="0" font-family="Arial,Arial_MSFontService,sans-serif" font-size="14.6172" x="0.828125" y="1.57129">Û§</text><text font-family="Aptos,Aptos_MSFontService,sans-serif" font-weight="400" font-size="16" transform="translate(83.573 677)">R</text><text font-family="Aptos,Aptos_MSFontService,sans-serif" font-weight="400" font-size="16" transform="translate(93.2397 677)">esulting</text><text font-family="Aptos,Aptos_MSFontService,sans-serif" font-weight="400" font-size="16" transform="translate(151.74 677)">Vector =</text><path d="M4.09375 3.39844 0.976562-3.61719 0.976562-4.19531 4.09375-11.2188 4.92188-10.9219 2.41406-3.90625 4.92188 3.11719Z" transform="translate(211.646 677)"/><text fill="#000000" fill-opacity="0" font-family="Arial,Arial_MSFontService,sans-serif" font-size="14.6172" x="0.976562" y="1.57129">Û¦</text><text font-family="Cambria Math,Cambria Math_MSFontService,sans-serif" font-weight="400" font-size="16" transform="translate(217.4 677)">6</text><text font-family="Cambria Math,Cambria Math_MSFontService,sans-serif" font-weight="400" font-size="16" transform="translate(226.233 677)">,</text><text font-family="Cambria Math,Cambria Math_MSFontService,sans-serif" font-weight="400" font-size="16" transform="translate(229.566 677)">4</text><path d="M1.66406-11.2188 4.78125-4.20312 4.78125-3.625 1.66406 3.39844 0.828125 3.10156 3.33594-3.91406 0.828125-10.9375Z" transform="translate(238.4 677)"/><text fill="#000000" fill-opacity="0" font-family="Arial,Arial_MSFontService,sans-serif" font-size="14.6172" x="0.828125" y="1.57129">Û§</text><text font-family="Aptos,Aptos_MSFontService,sans-serif" font-weight="700" font-size="24" transform="translate(423.952 184)">V</text><text font-family="Aptos,Aptos_MSFontService,sans-serif" font-weight="700" font-size="24" transform="translate(437.659 184)">ector</text><text font-family="Aptos,Aptos_MSFontService,sans-serif" font-weight="700" font-size="24" transform="translate(500.039 184)">magnitude</text><text font-family="Aptos,Aptos_MSFontService,sans-serif" font-weight="400" font-size="24" transform="translate(423.952 213)">(</text><text font-family="Aptos,Aptos_MSFontService,sans-serif" font-weight="400" font-size="24" transform="translate(430.952 213)">P</text><text font-family="Aptos,Aptos_MSFontService,sans-serif" font-weight="400" font-size="24" transform="translate(444.812 213)">ythagoras</text><text font-family="Aptos,Aptos_MSFontService,sans-serif" font-weight="400" font-size="24" transform="translate(550.759 213)">Theorem)</text><text font-family="Aptos,Aptos_MSFontService,sans-serif" font-weight="400" font-size="24" transform="translate(423.952 277)">Resuting</text><text font-family="Aptos,Aptos_MSFontService,sans-serif" font-weight="400" font-size="24" transform="translate(519.286 277)">Vector =</text><path d="M624.401 253.875 627.682 253.875 627.682 254.183 675.952 254.183 675.952 256.183 626.952 256.183 626.952 255.434 625.338 255.434 617.721 283.676 616.584 283.676 611.733 273.246 609.752 274.125 609.389 273.246 613.233 271.488 617.287 280.535Z" fill-rule="evenodd"/><path d="M6.14062 5.09766 1.46484-5.42578 1.46484-6.29297 6.14062-16.8281 7.38281-16.3828 3.62109-5.85938 7.38281 4.67578Z" transform="translate(626.806 276)"/><text fill="#000000" fill-opacity="0" font-family="Arial,Arial_MSFontService,sans-serif" font-size="21.9258" x="1.46484" y="2.35693">Û¦</text><text font-family="Cambria Math,Cambria Math_MSFontService,sans-serif" font-weight="400" font-size="24" transform="translate(635.432 277)">4</text><text font-family="Cambria Math,Cambria Math_MSFontService,sans-serif" font-weight="400" font-size="24" transform="translate(648.766 277)">,</text><text font-family="Cambria Math,Cambria Math_MSFontService,sans-serif" font-weight="400" font-size="24" transform="translate(653.766 277)">6</text><path d="M2.49609-16.8281 7.17188-6.30469 7.17188-5.4375 2.49609 5.09766 1.24219 4.65234 5.00391-5.87109 1.24219-16.4062Z" transform="translate(667.099 276)"/><text fill="#000000" fill-opacity="0" font-family="Arial,Arial_MSFontService,sans-serif" font-size="21.9258" x="1.24219" y="2.35693">Û§</text><text font-family="Aptos,Aptos_MSFontService,sans-serif" font-weight="400" font-size="24" transform="translate(597.952 338)">=</text><path d="M630.952 316.183 708.952 316.183 708.952 318.183 630.952 318.183 630.952 317.82 630.666 317.82 624.361 339.359 623.224 339.359 618.373 328.929 616.392 329.808 616.029 328.929 619.873 327.171 624.01 336.265 629.799 316.261 630.952 316.261Z" fill-rule="evenodd"/><text font-family="Cambria Math,Cambria Math_MSFontService,sans-serif" font-weight="400" font-size="24" transform="translate(631.379 338)">4</text><text font-family="Cambria Math,Cambria Math_MSFontService,sans-serif" font-weight="400" font-size="18" transform="translate(644.712 331)">2</text><text font-family="Cambria Math,Cambria Math_MSFontService,sans-serif" font-weight="400" font-size="24" transform="translate(661.206 338)">+</text><text font-family="Cambria Math,Cambria Math_MSFontService,sans-serif" font-weight="400" font-size="24" transform="translate(684.539 338)">6</text><text font-family="Cambria Math,Cambria Math_MSFontService,sans-serif" font-weight="400" font-size="18" transform="translate(697.872 331)">2</text><text font-family="Aptos,Aptos_MSFontService,sans-serif" font-weight="400" font-size="24" transform="translate(592.452 369)">=</text><path d="M625.952 348.183 707.952 348.183 707.952 350.183 625.952 350.183 625.952 349.873 625.166 349.873 618.861 371.412 617.724 371.412 612.873 360.982 610.892 361.861 610.529 360.982 614.373 359.225 618.51 368.318 624.299 348.314 625.952 348.314Z" fill-rule="evenodd"/><text font-family="Cambria Math,Cambria Math_MSFontService,sans-serif" font-weight="400" font-size="24" transform="translate(625.879 369)">16</text><text font-family="Cambria Math,Cambria Math_MSFontService,sans-serif" font-weight="400" font-size="24" transform="translate(657.879 369)">+</text><text font-family="Cambria Math,Cambria Math_MSFontService,sans-serif" font-weight="400" font-size="24" transform="translate(681.212 369)">36</text><text font-family="Aptos,Aptos_MSFontService,sans-serif" font-weight="400" font-size="24" transform="translate(592.452 401)">=</text><path d="M624.299 379.788 627.287 379.788 627.287 380.183 652.952 380.183 652.952 382.183 625.952 382.183 625.952 381.346 625.166 381.346 618.861 402.885 617.724 402.885 612.873 392.456 610.892 393.335 610.529 392.456 614.373 390.698 618.51 399.792Z" fill-rule="evenodd"/><text font-family="Cambria Math,Cambria Math_MSFontService,sans-serif" font-weight="400" font-size="24" transform="translate(625.879 401)">52</text><text font-family="Aptos,Aptos_MSFontService,sans-serif" font-weight="700" font-size="24" transform="translate(831.472 169)">D</text><text font-family="Aptos,Aptos_MSFontService,sans-serif" font-weight="700" font-size="24" transform="translate(848.472 169)">irection</text><text font-family="Aptos,Aptos_MSFontService,sans-serif" font-weight="400" font-size="16" transform="translate(831.472 210)">T</text><text font-family="Aptos,Aptos_MSFontService,sans-serif" font-weight="400" font-size="16" transform="translate(839.139 210)">his is</text><text font-family="Aptos,Aptos_MSFontService,sans-serif" font-weight="400" font-size="16" transform="translate(877.972 210)">finding</text><text font-family="Aptos,Aptos_MSFontService,sans-serif" font-weight="400" font-size="16" transform="translate(928.306 210)">the</text><text font-family="Aptos,Aptos_MSFontService,sans-serif" font-weight="400" font-size="16" transform="translate(954.139 210)">angle of the resultant vector , when</text><text font-family="Aptos,Aptos_MSFontService,sans-serif" font-weight="400" font-size="16" transform="translate(831.472 229)">we have adjacent and opposite</text><text font-family="Cambria Math,Cambria Math_MSFontService,sans-serif" font-weight="400" font-size="16" transform="translate(955.346 278)">tan</text><text font-family="Cambria Math,Cambria Math_MSFontService,sans-serif" font-weight="400" font-size="16" transform="translate(980.179 278)">ğœƒ</text><text font-family="Cambria Math,Cambria Math_MSFontService,sans-serif" font-weight="400" font-size="16" transform="translate(994.092 278)">=</text><text font-family="Cambria Math,Cambria Math_MSFontService,sans-serif" font-weight="400" font-size="16" transform="translate(1008.31 278)"></text><text font-family="Cambria Math,Cambria Math_MSFontService,sans-serif" font-weight="400" font-size="16" transform="translate(1014.56 266)">ğ‘‚ğ‘ğ‘ğ‘œğ‘ ğ‘–ğ‘¡ğ‘’</text><text font-family="Cambria Math,Cambria Math_MSFontService,sans-serif" font-weight="400" font-size="16" transform="translate(1014.04 289)">ğ´ğ‘‘ğ‘—ğ‘ğ‘ğ‘’ğ‘›ğ‘¡</text><path d="M1014.47 273.312 1079.47 273.312 1079.47 274.312 1014.47 274.312Z" fill-rule="evenodd"/><text font-family="Cambria Math,Cambria Math_MSFontService,sans-serif" font-weight="400" font-size="16" transform="translate(957.792 330)">tan</text><text font-family="Cambria Math,Cambria Math_MSFontService,sans-serif" font-weight="400" font-size="16" transform="translate(982.626 330)">ğœƒ</text><text font-family="Cambria Math,Cambria Math_MSFontService,sans-serif" font-weight="400" font-size="16" transform="translate(996.539 330)">=</text><text font-family="Cambria Math,Cambria Math_MSFontService,sans-serif" font-weight="400" font-size="16" transform="translate(1010.76 330)"></text><text font-family="Cambria Math,Cambria Math_MSFontService,sans-serif" font-weight="400" font-size="12" transform="translate(1016.49 321)">4</text><text font-family="Cambria Math,Cambria Math_MSFontService,sans-serif" font-weight="400" font-size="12" transform="translate(1016.49 338)">6</text><path d="M1016.47 325.312 1023.47 325.312 1023.47 326.312 1016.47 326.312Z" fill-rule="evenodd"/><text font-family="Aptos,Aptos_MSFontService,sans-serif" font-weight="400" font-size="16" transform="translate(1026.65 330)">= 0,667</text><text font-family="Cambria Math,Cambria Math_MSFontService,sans-serif" font-weight="400" font-size="16" transform="translate(962.359 373)">tan</text><text font-family="Cambria Math,Cambria Math_MSFontService,sans-serif" font-weight="400" font-size="12" transform="translate(984.526 367)">âˆ’</text><text font-family="Cambria Math,Cambria Math_MSFontService,sans-serif" font-weight="400" font-size="12" transform="translate(993.026 367)">1</text><path d="M1046.34 361.329C1047.86 361.73 1049.03 362.596 1049.84 363.927 1050.66 365.258 1051.07 366.863 1051.07 368.743 1051.07 370.629 1050.66 372.234 1049.85 373.56 1049.04 374.885 1047.87 375.749 1046.34 376.15L1046.15 375.548C1047.36 375.147 1048.25 374.355 1048.84 373.173 1049.42 371.991 1049.72 370.488 1049.72 368.665 1049.72 366.905 1049.42 365.443 1048.84 364.279 1048.26 363.114 1047.35 362.332 1046.13 361.931ZM1006.66 361.329 1006.87 361.931C1005.65 362.332 1004.75 363.114 1004.16 364.279 1003.58 365.443 1003.28 366.905 1003.28 368.665 1003.28 370.488 1003.58 371.991 1004.16 373.173 1004.75 374.355 1005.64 375.147 1006.85 375.548L1006.66 376.15C1005.13 375.749 1003.96 374.885 1003.15 373.56 1002.34 372.234 1001.93 370.629 1001.93 368.743 1001.93 366.863 1002.34 365.258 1003.15 363.927 1003.97 362.596 1005.14 361.73 1006.66 361.329Z" fill-rule="evenodd"/><text font-family="Cambria Math,Cambria Math_MSFontService,sans-serif" font-weight="400" font-size="16" transform="translate(1007.17 373)">0</text><text font-family="Cambria Math,Cambria Math_MSFontService,sans-serif" font-weight="400" font-size="16" transform="translate(1016 373)">,</text><text font-family="Cambria Math,Cambria Math_MSFontService,sans-serif" font-weight="400" font-size="16" transform="translate(1019.33 373)">677</text><text font-family="Cambria Math,Cambria Math_MSFontService,sans-serif" font-weight="400" font-size="16" transform="translate(1056.92 373)">=</text><text font-family="Cambria Math,Cambria Math_MSFontService,sans-serif" font-weight="400" font-size="16" transform="translate(1068.92 373)"></text><text font-family="Cambria Math,Cambria Math_MSFontService,sans-serif" font-weight="400" font-size="16" transform="translate(983.412 411)">ğœƒ</text><text font-family="Cambria Math,Cambria Math_MSFontService,sans-serif" font-weight="400" font-size="16" transform="translate(997.326 411)">=</text><text font-family="Cambria Math,Cambria Math_MSFontService,sans-serif" font-weight="400" font-size="16" transform="translate(1013.77 411)">33</text><text font-family="Cambria Math,Cambria Math_MSFontService,sans-serif" font-weight="400" font-size="16" transform="translate(1031.44 411)">.</text><text font-family="Cambria Math,Cambria Math_MSFontService,sans-serif" font-weight="400" font-size="16" transform="translate(1034.77 411)">7</text><text font-family="Cambria Math,Cambria Math_MSFontService,sans-serif" font-weight="400" font-size="12" transform="translate(1043.61 405)">ğ‘œ</text><text font-family="Aptos,Aptos_MSFontService,sans-serif" font-weight="700" font-size="16" transform="translate(954.806 449)">north East</text><text font-family="Cambria Math,Cambria Math_MSFontService,sans-serif" font-weight="400" font-size="24" transform="translate(127.519 556)">ğœƒ</text><path d="M125 475 203.02 475 203.02 477 125 477ZM195.524 470.47 205.005 476 195.524 481.531C195.047 481.809 194.434 481.648 194.156 481.171 193.878 480.694 194.039 480.081 194.516 479.803L202.516 475.136 202.516 476.864 194.516 472.197C194.039 471.919 193.878 471.307 194.156 470.83 194.435 470.353 195.047 470.191 195.524 470.47Z" fill="#E97132"/><text font-family="Aptos,Aptos_MSFontService,sans-serif" font-weight="700" font-size="15" transform="translate(98.0432 506)">4 m</text><path d="M0.536556-0.843865 7.28748 3.44858 6.21436 5.13631-0.536556 0.843865ZM12.3507 6.66791 19.1016 10.9604 18.0285 12.6481 11.2776 8.35564ZM24.1648 14.1797 30.9157 18.4721 29.8426 20.1599 23.0917 15.8674ZM35.9789 21.6915 42.7298 25.9839 41.6567 27.6716 34.9058 23.3792ZM47.793 29.2033 54.5439 33.4957 53.4708 35.1834 46.7199 30.891ZM59.6071 36.715 66.358 41.0075 65.2849 42.6952 58.534 38.4028ZM71.4212 44.2268 74.3149 46.0667 73.2418 47.7545 70.3481 45.9145ZM74.7995 42.8198 79.4042 50.4877 70.5071 49.5707Z" fill="#47D45A" transform="matrix(1 0 0 -1 125 525.488)"/><path d="M1-2.02894e-06 1.0001 49.7647-0.999899 49.7647-1 2.02894e-06ZM5.53053 42.2685 0.00010501 51.7493-5.53036 42.2686C-5.80864 41.7915-5.64751 41.1792-5.17045 40.9009-4.6934 40.6226-4.08109 40.7838-3.8028 41.2608L0.863879 49.2608-0.863679 49.2608 3.80297 41.2608C4.08125 40.7837 4.69357 40.6226 5.17062 40.9009 5.64767 41.1792 5.80881 41.7915 5.53053 42.2685Z" fill="#E97132" transform="matrix(1 0 0 -1 125 526.745)"/><text font-family="Aptos,Aptos_MSFontService,sans-serif" font-weight="700" font-size="15" transform="translate(143.082 468)">6 m</text><text font-family="Aptos,Aptos_MSFontService,sans-serif" font-weight="400" font-size="16" transform="translate(149.261 550)">direction</text></g></svg>