<svg width="1280" height="720" xmlns="http://www.w3.org/2000/svg" xmlns:xlink="http://www.w3.org/1999/xlink" overflow="hidden"><g><rect x="0" y="0" width="1280" height="720" fill="#FFFFFF"/><text font-family="Aptos,Aptos_MSFontService,sans-serif" font-weight="700" font-size="24" transform="translate(275.132 98)">Graphical vector addition</text><text font-family="Aptos,Aptos_MSFontService,sans-serif" font-weight="700" font-size="24" transform="translate(38.8765 158)">Graphical vector addition</text><text font-family="Aptos,Aptos_MSFontService,sans-serif" font-weight="700" font-size="24" transform="translate(318.943 158)">:</text><path d="M38.8765 158.504 182.377 158.504 325.877 158.504 325.877 159.504 182.377 159.504 38.8765 159.504Z" fill-rule="evenodd"/><text font-family="Aptos,Aptos_MSFontService,sans-serif" font-weight="400" font-size="24" transform="translate(38.8765 187)">-</text><text font-family="Aptos,Aptos_MSFontService,sans-serif" font-weight="400" font-size="24" transform="translate(68.8765 187)">drawing</text><text font-family="Aptos,Aptos_MSFontService,sans-serif" font-weight="400" font-size="24" transform="translate(155.137 187)">the vectors and visually finding their sum (also called the</text><text font-family="Aptos,Aptos_MSFontService,sans-serif" font-weight="700" font-size="24" transform="translate(741.517 187)">resultant vector</text><text font-family="Aptos,Aptos_MSFontService,sans-serif" font-weight="400" font-size="24" transform="translate(914.863 187)">).</text><text font-family="Aptos,Aptos_MSFontService,sans-serif" font-weight="400" font-size="24" transform="translate(38.8765 216)">-</text><text font-family="Aptos,Aptos_MSFontService,sans-serif" font-weight="400" font-size="24" transform="translate(68.8765 216)">The</text><text font-family="Aptos,Aptos_MSFontService,sans-serif" font-weight="400" font-size="24" transform="translate(111.043 216)">most common method is the</text><text font-family="Aptos,Aptos_MSFontService,sans-serif" font-style="italic" font-weight="700" font-size="24" transform="translate(413.237 216)">"head</text><text font-family="Aptos,Aptos_MSFontService,sans-serif" font-style="italic" font-weight="700" font-size="24" transform="translate(477.737 216)">-</text><text font-family="Aptos,Aptos_MSFontService,sans-serif" font-style="italic" font-weight="700" font-size="24" transform="translate(485.903 216)">to</text><text font-family="Aptos,Aptos_MSFontService,sans-serif" font-style="italic" font-weight="700" font-size="24" transform="translate(507.95 216)">-</text><text font-family="Aptos,Aptos_MSFontService,sans-serif" font-style="italic" font-weight="700" font-size="24" transform="translate(516.117 216)">tail"</text><text font-family="Aptos,Aptos_MSFontService,sans-serif" font-weight="400" font-size="24" transform="translate(565.83 216)">method.</text><text font-family="Aptos,Aptos_MSFontService,sans-serif" font-weight="700" font-size="21" transform="translate(38.8765 264)">Head</text><text font-family="Aptos,Aptos_MSFontService,sans-serif" font-weight="700" font-size="21" transform="translate(90.5432 264)">-</text><text font-family="Aptos,Aptos_MSFontService,sans-serif" font-weight="700" font-size="21" transform="translate(97.8765 264)">to</text><text font-family="Aptos,Aptos_MSFontService,sans-serif" font-weight="700" font-size="21" transform="translate(117.603 264)">-</text><text font-family="Aptos,Aptos_MSFontService,sans-serif" font-weight="700" font-size="21" transform="translate(123.97 264)">Tail Method:</text><text font-family="Aptos,Aptos_MSFontService,sans-serif" font-weight="400" font-size="21" transform="translate(38.8765 289)">1)</text><text font-family="Aptos,Aptos_MSFontService,sans-serif" font-weight="400" font-size="21" transform="translate(74.8765 289)">Draw the first vector.</text><text font-family="Aptos,Aptos_MSFontService,sans-serif" font-weight="400" font-size="21" transform="translate(38.8765 315)">2)</text><text font-family="Aptos,Aptos_MSFontService,sans-serif" font-weight="400" font-size="21" transform="translate(74.8765 315)">Starting from the</text><text font-family="Aptos,Aptos_MSFontService,sans-serif" font-style="italic" font-weight="400" font-size="21" transform="translate(232.497 315)">head</text><text font-family="Aptos,Aptos_MSFontService,sans-serif" font-weight="400" font-size="21" transform="translate(283.33 315)">(arrow end) of the first vector, draw the</text><text font-family="Aptos,Aptos_MSFontService,sans-serif" font-weight="400" font-size="21" transform="translate(74.8765 340)">second vector. Make sure its direction and length are correct.</text><text font-family="Aptos,Aptos_MSFontService,sans-serif" font-weight="400" font-size="21" transform="translate(38.8765 366)">3)</text><text font-family="Aptos,Aptos_MSFontService,sans-serif" font-weight="400" font-size="21" transform="translate(74.8765 366)">The resultant vector is the vector drawn from the</text><text font-family="Aptos,Aptos_MSFontService,sans-serif" font-style="italic" font-weight="400" font-size="21" transform="translate(520.257 366)">tail</text><text font-family="Aptos,Aptos_MSFontService,sans-serif" font-weight="400" font-size="21" transform="translate(553.037 366)">(starting</text><text font-family="Aptos,Aptos_MSFontService,sans-serif" font-weight="400" font-size="21" transform="translate(74.8765 392)">point) of the first vector to the</text><text font-family="Aptos,Aptos_MSFontService,sans-serif" font-style="italic" font-weight="400" font-size="21" transform="translate(348.957 392)">head</text><text font-family="Aptos,Aptos_MSFontService,sans-serif" font-weight="400" font-size="21" transform="translate(399.79 392)">of the second vector.</text><path d="M780.38 310.498 870.691 389.843 868.931 391.846 778.62 312.502ZM871.449 386.96 874.819 395.245 866.169 392.97Z" fill="#E97132"/><path d="M1-1.45719e-06 1.0001 65.3807-0.999905 65.3807-1 1.45719e-06ZM4.00009 64.0473 0.000104987 72.0473-3.99991 64.0474Z" fill="#156082" transform="matrix(1 0 0 -1 759 351.047)"/><text font-family="Aptos,Aptos_MSFontService,sans-serif" font-weight="400" font-size="24" transform="translate(736.763 326)">A</text><text font-family="Aptos,Aptos_MSFontService,sans-serif" font-weight="400" font-size="24" transform="translate(952.585 270)">B</text><path d="M906.66 236.249 996.971 315.593 995.651 317.096 905.34 237.751ZM997.949 312.46 1001.32 320.745 992.669 318.469Z" fill="#E97132"/><path d="M1-1.45719e-06 1.0001 65.3807-0.999905 65.3807-1 1.45719e-06ZM4.00009 64.0473 0.000104987 72.0473-3.99991 64.0474Z" fill="#156082" transform="matrix(1 0 0 -1 904 302.047)"/><text font-family="Aptos,Aptos_MSFontService,sans-serif" font-weight="400" font-size="24" transform="translate(825.782 347)">B</text><text font-family="Aptos,Aptos_MSFontService,sans-serif" font-weight="400" font-size="24" transform="translate(880.078 274)">A</text><path d="M906.533 300.048 912.438 301.114 911.371 307.019 905.467 305.952ZM918.342 302.18 924.247 303.247 923.18 309.151 917.276 308.085ZM930.151 304.313 936.056 305.379 934.989 311.284 929.085 310.218ZM941.96 306.446 947.865 307.512 946.798 313.417 940.894 312.35ZM953.769 308.578 959.674 309.645 958.607 315.549 952.703 314.483ZM965.578 310.711 971.483 311.777 970.416 317.682 964.512 316.615ZM977.387 312.844 983.292 313.91 982.225 319.814 976.321 318.748ZM985.205 308.158 1001.32 320.214 982.006 325.872Z" fill="#156082"/><text font-family="Aptos,Aptos_MSFontService,sans-serif" font-weight="400" font-size="24" transform="translate(928.767 336)">R</text><text font-family="Aptos,Aptos_MSFontService,sans-serif" font-weight="700" font-size="24" transform="translate(952.585 349)">resultant vector</text><text font-family="Aptos,Aptos_MSFontService,sans-serif" font-weight="700" font-size="19" transform="translate(46.366 486)">Notes:</text><text font-family="Aptos,Aptos_MSFontService,sans-serif" font-weight="400" font-size="19" transform="translate(46.366 509)">-</text><text font-family="Aptos,Aptos_MSFontService,sans-serif" font-weight="400" font-size="19" transform="translate(76.366 509)">W</text><text font-family="Aptos,Aptos_MSFontService,sans-serif" font-weight="400" font-size="19" transform="translate(93.0327 509)">hen adding vectors, the order does not matter</text><text font-family="Aptos,Aptos_MSFontService,sans-serif" font-weight="400" font-size="19" transform="translate(46.366 531)">-</text><text font-family="Aptos,Aptos_MSFontService,sans-serif" font-weight="400" font-size="19" transform="translate(76.366 531)">S</text><text font-family="Aptos,Aptos_MSFontService,sans-serif" font-weight="400" font-size="19" transform="translate(86.866 531)">ometimes</text><text font-family="Aptos,Aptos_MSFontService,sans-serif" font-weight="400" font-size="19" transform="translate(171.359 531)">“no R” (</text><text font-family="Aptos,Aptos_MSFontService,sans-serif" font-weight="400" font-size="19" transform="translate(232.686 531)">i.e</text><text font-family="Aptos,Aptos_MSFontService,sans-serif" font-weight="400" font-size="19" transform="translate(255.619 531)">R = 0)</text><text font-family="Aptos,Aptos_MSFontService,sans-serif" font-weight="400" font-size="19" transform="translate(46.366 553)">-</text><text font-family="Aptos,Aptos_MSFontService,sans-serif" font-weight="400" font-size="19" transform="translate(76.366 553)">Connection:</text><text font-family="Aptos,Aptos_MSFontService,sans-serif" font-weight="400" font-size="19" transform="translate(94.366 576)">-</text><text font-family="Aptos,Aptos_MSFontService,sans-serif" font-weight="400" font-size="19" transform="translate(124.366 576)">Physics:</text><text font-family="Aptos,Aptos_MSFontService,sans-serif" font-weight="400" font-size="19" transform="translate(195.426 576)">visualizing forces</text><text font-family="Aptos,Aptos_MSFontService,sans-serif" font-weight="400" font-size="19" transform="translate(337.266 576)">acting on an object.</text><text font-family="Aptos,Aptos_MSFontService,sans-serif" font-weight="400" font-size="19" transform="translate(94.366 598)">-</text><text font-family="Aptos,Aptos_MSFontService,sans-serif" font-weight="400" font-size="19" transform="translate(124.366 598)">Trigonometry</text><text font-family="Aptos,Aptos_MSFontService,sans-serif" font-weight="400" font-size="19" transform="translate(233.666 598)">:</text><text font-family="Aptos,Aptos_MSFontService,sans-serif" font-weight="400" font-size="19" transform="translate(242.833 598)">when we know (one angle)</text><path d="M780.833 464.5 780.833 580.621 778.167 580.621 778.167 464.5ZM783.5 579.288 779.5 587.288 775.5 579.288Z" fill="#E97132"/><text font-family="Aptos,Aptos_MSFontService,sans-serif" font-weight="400" font-size="24" transform="translate(736.763 505)">A</text><path d="M1-1.45719e-06 1.0001 65.3807-0.999905 65.3807-1 1.45719e-06ZM4.00009 64.0473 0.000104987 72.0473-3.99991 64.0474Z" fill="#156082" transform="matrix(1 0 0 -1 761 536.047)"/><text font-family="Aptos,Aptos_MSFontService,sans-serif" font-weight="400" font-size="24" transform="translate(789.517 512)">B</text><path d="M1-1.45719e-06 1.0001 65.3807-0.999905 65.3807-1 1.45719e-06ZM4.00009 64.0473 0.000104987 72.0473-3.99991 64.0474Z" fill="#156082" transform="matrix(1 0 0 -1 853 538.047)"/><path d="M860.833 467.5 860.833 583.621 858.167 583.621 858.167 467.5ZM863.5 582.288 859.5 590.288 855.5 582.288Z" fill="#E97132"/><path d="M855.997 537.87 856.257 543.865 850.263 544.124 850.003 538.13ZM856.517 549.859 856.776 555.853 850.782 556.113 850.522 550.119ZM857.036 561.848 857.296 567.842 851.301 568.102 851.042 562.107ZM863.416 570.49 855.204 588.863 845.433 571.269Z" fill="#156082"/></g></svg>